<?xml version="1.0" encoding="UTF-8" standalone="no"?><svg xmlns="http://www.w3.org/2000/svg" xmlns:xlink="http://www.w3.org/1999/xlink" contentScriptType="application/ecmascript" contentStyleType="text/css" height="237px" preserveAspectRatio="none" style="width:188px;height:237px;" version="1.1" viewBox="0 0 188 237" width="188px" zoomAndPan="magnify"><defs/><g><!--class Schauspieler--><rect fill="#E3F2FD" height="62.2969" id="Schauspieler" rx="6" ry="6" style="stroke: #1976D2; stroke-width: 1.5;" width="119" x="32" y="8"/><ellipse cx="46" cy="23" fill="#ADD1B2" rx="10" ry="10" style="stroke: #1976D2; stroke-width: 1.0;"/><path d="M48.3906,27.7031 Q47.9063,27.9531 47.375,28.0781 Q46.8594,28.2031 46.2813,28.2031 Q44.2188,28.2031 43.125,26.8438 Q42.0469,25.4844 42.0469,22.9063 Q42.0469,20.3281 43.125,18.9688 Q44.2188,17.6094 46.2813,17.6094 Q46.8594,17.6094 47.3906,17.7344 Q47.9219,17.8594 48.3906,18.0938 L48.3906,20.3438 Q47.875,19.8594 47.375,19.6406 Q46.8906,19.4219 46.375,19.4219 Q45.2656,19.4219 44.7031,20.2969 Q44.1406,21.1719 44.1406,22.9063 Q44.1406,24.625 44.7031,25.5156 Q45.2656,26.3906 46.375,26.3906 Q46.8906,26.3906 47.375,26.1719 Q47.875,25.9375 48.3906,25.4688 L48.3906,27.7031 Z "/><text fill="#0D47A1" font-family="Helvetica" font-size="14" lengthAdjust="spacingAndGlyphs" textLength="89" x="59" y="27.8467">Schauspieler</text><line style="stroke: #1976D2; stroke-width: 1.5;" x1="33" x2="150" y1="38" y2="38"/><rect fill="none" height="6" style="stroke: #C82930; stroke-width: 1.0;" width="6" x="40" y="48.6484"/><text fill="#0D47A1" font-family="Helvetica" font-size="14" lengthAdjust="spacingAndGlyphs" textLength="88" x="51" y="54.9951">name: String</text><line style="stroke: #1976D2; stroke-width: 1.5;" x1="33" x2="150" y1="62.2969" y2="62.2969"/><!--class Film--><rect fill="#E3F2FD" height="78.5938" id="Film" rx="6" ry="6" style="stroke: #1976D2; stroke-width: 1.5;" width="171" x="6" y="148"/><ellipse cx="74" cy="163" fill="#ADD1B2" rx="10" ry="10" style="stroke: #1976D2; stroke-width: 1.0;"/><path d="M76.3906,167.7031 Q75.9063,167.9531 75.375,168.0781 Q74.8594,168.2031 74.2813,168.2031 Q72.2188,168.2031 71.125,166.8438 Q70.0469,165.4844 70.0469,162.9063 Q70.0469,160.3281 71.125,158.9688 Q72.2188,157.6094 74.2813,157.6094 Q74.8594,157.6094 75.3906,157.7344 Q75.9219,157.8594 76.3906,158.0938 L76.3906,160.3438 Q75.875,159.8594 75.375,159.6406 Q74.8906,159.4219 74.375,159.4219 Q73.2656,159.4219 72.7031,160.2969 Q72.1406,161.1719 72.1406,162.9063 Q72.1406,164.625 72.7031,165.5156 Q73.2656,166.3906 74.375,166.3906 Q74.8906,166.3906 75.375,166.1719 Q75.875,165.9375 76.3906,165.4688 L76.3906,167.7031 Z "/><text fill="#0D47A1" font-family="Helvetica" font-size="14" lengthAdjust="spacingAndGlyphs" textLength="27" x="93" y="167.8467">Film</text><line style="stroke: #1976D2; stroke-width: 1.5;" x1="7" x2="176" y1="178" y2="178"/><rect fill="none" height="6" style="stroke: #C82930; stroke-width: 1.0;" width="6" x="14" y="188.6484"/><text fill="#0D47A1" font-family="Helvetica" font-size="14" lengthAdjust="spacingAndGlyphs" textLength="74" x="25" y="194.9951">titel: String</text><rect fill="none" height="6" style="stroke: #C82930; stroke-width: 1.0;" width="6" x="14" y="204.9453"/><text fill="#0D47A1" font-family="Helvetica" font-size="14" lengthAdjust="spacingAndGlyphs" textLength="146" x="25" y="211.292">erscheinungsjahr: int</text><line style="stroke: #1976D2; stroke-width: 1.5;" x1="7" x2="176" y1="218.5938" y2="218.5938"/><!--link Schauspieler to Film--><path d="M91.5,70.35 C91.5,92.82 91.5,123.59 91.5,147.81 " fill="none" id="Schauspieler-Film" style="stroke: #1976D2; stroke-width: 1.0;"/><text fill="#0D47A1" font-family="Helvetica" font-size="14" lengthAdjust="spacingAndGlyphs" textLength="53" x="92.5" y="113.9951">spielt in</text><text fill="#0D47A1" font-family="Helvetica" font-size="14" lengthAdjust="spacingAndGlyphs" textLength="7" x="83.7781" y="91.4611">*</text><text fill="#0D47A1" font-family="Helvetica" font-size="14" lengthAdjust="spacingAndGlyphs" textLength="7" x="83.8984" y="136.6688">*</text><!--
@startuml
skinparam backgroundColor #FFFFFF
skinparam defaultFontName Helvetica
skinparam defaultFontSize 14
skinparam shadowing false
skinparam roundCorner 12
skinparam ArrowColor #1976D2
skinparam ArrowFontColor #0D47A1

skinparam actor {
  BackgroundColor #E3F2FD
  BorderColor #1976D2
  FontColor #0D47A1
}
skinparam usecase {
  BackgroundColor #E3F2FD
  BorderColor #1976D2
  FontColor #0D47A1
}
skinparam class {
  BackgroundColor #E3F2FD
  BorderColor #1976D2
  FontColor #0D47A1
  AttributeFontColor #0D47A1
  HeaderBackgroundColor #BBDEFB
}
skinparam state {
  BackgroundColor #E3F2FD
  BorderColor #1976D2
  FontColor #0D47A1
  ArrowColor #1976D2
  StartColor #222222
  EndColor #222222
}
skinparam sequence {
  ParticipantBackgroundColor #E3F2FD
  ParticipantBorderColor #1976D2
  ParticipantFontColor #0D47A1
  ActorBackgroundColor #E3F2FD
  ActorBorderColor #1976D2
  LifeLineBorderColor #90A4AE
  LifeLineBackgroundColor #ECEFF1
  BoxBorderColor #1976D2
}
skinparam activity {
  BackgroundColor #E3F2FD
  BorderColor #1976D2
  FontColor #0D47A1
  DiamondBackgroundColor #FFF3E0
  DiamondBorderColor #FB8C00
  StartColor #222222
  EndColor #222222
  BarColor #455A64
}
class Schauspieler {
  -name: String
}
class Film {
  -titel: String
  -erscheinungsjahr: int
}
Schauspieler "*" - - "*" Film : spielt in
@enduml

PlantUML version 1.2019.06(Fri May 24 19:10:25 CEST 2019)
(GPL source distribution)
Java Runtime: OpenJDK Runtime Environment
JVM: OpenJDK 64-Bit Server VM
Java Version: 11.0.31+11-post-1ubuntu1-22.04.2-Ubuntu
Operating System: Linux
OS Version: 6.8.0-136-generic
Default Encoding: UTF-8
Language: en
Country: null
--></g></svg>