<?xml version="1.0" encoding="UTF-8" standalone="no"?><svg xmlns="http://www.w3.org/2000/svg" xmlns:xlink="http://www.w3.org/1999/xlink" contentScriptType="application/ecmascript" contentStyleType="text/css" height="254px" preserveAspectRatio="none" style="width:190px;height:254px;" version="1.1" viewBox="0 0 190 254" width="190px" zoomAndPan="magnify"><defs/><g><!--class Person--><rect fill="#E3F2FD" height="78.5938" id="Person" rx="6" ry="6" style="stroke: #1976D2; stroke-width: 1.5;" width="173" x="6" y="8"/><ellipse cx="64" cy="23" fill="#ADD1B2" rx="10" ry="10" style="stroke: #1976D2; stroke-width: 1.0;"/><path d="M66.3906,27.7031 Q65.9063,27.9531 65.375,28.0781 Q64.8594,28.2031 64.2813,28.2031 Q62.2188,28.2031 61.125,26.8438 Q60.0469,25.4844 60.0469,22.9063 Q60.0469,20.3281 61.125,18.9688 Q62.2188,17.6094 64.2813,17.6094 Q64.8594,17.6094 65.3906,17.7344 Q65.9219,17.8594 66.3906,18.0938 L66.3906,20.3438 Q65.875,19.8594 65.375,19.6406 Q64.8906,19.4219 64.375,19.4219 Q63.2656,19.4219 62.7031,20.2969 Q62.1406,21.1719 62.1406,22.9063 Q62.1406,24.625 62.7031,25.5156 Q63.2656,26.3906 64.375,26.3906 Q64.8906,26.3906 65.375,26.1719 Q65.875,25.9375 66.3906,25.4688 L66.3906,27.7031 Z "/><text fill="#0D47A1" font-family="Helvetica" font-size="14" lengthAdjust="spacingAndGlyphs" textLength="49" x="83" y="27.8467">Person</text><line style="stroke: #1976D2; stroke-width: 1.5;" x1="7" x2="178" y1="38" y2="38"/><rect fill="none" height="6" style="stroke: #C82930; stroke-width: 1.0;" width="6" x="14" y="48.6484"/><text fill="#0D47A1" font-family="Helvetica" font-size="14" lengthAdjust="spacingAndGlyphs" textLength="88" x="25" y="54.9951">name: String</text><rect fill="none" height="6" style="stroke: #C82930; stroke-width: 1.0;" width="6" x="14" y="64.9453"/><text fill="#0D47A1" font-family="Helvetica" font-size="14" lengthAdjust="spacingAndGlyphs" textLength="148" x="25" y="71.292">reisepass: Reisepass</text><line style="stroke: #1976D2; stroke-width: 1.5;" x1="7" x2="178" y1="78.5938" y2="78.5938"/><!--class Reisepass--><rect fill="#E3F2FD" height="78.5938" id="Reisepass" rx="6" ry="6" style="stroke: #1976D2; stroke-width: 1.5;" width="132" x="26.5" y="165"/><ellipse cx="54" cy="180" fill="#ADD1B2" rx="10" ry="10" style="stroke: #1976D2; stroke-width: 1.0;"/><path d="M56.3906,184.7031 Q55.9063,184.9531 55.375,185.0781 Q54.8594,185.2031 54.2813,185.2031 Q52.2188,185.2031 51.125,183.8438 Q50.0469,182.4844 50.0469,179.9063 Q50.0469,177.3281 51.125,175.9688 Q52.2188,174.6094 54.2813,174.6094 Q54.8594,174.6094 55.3906,174.7344 Q55.9219,174.8594 56.3906,175.0938 L56.3906,177.3438 Q55.875,176.8594 55.375,176.6406 Q54.8906,176.4219 54.375,176.4219 Q53.2656,176.4219 52.7031,177.2969 Q52.1406,178.1719 52.1406,179.9063 Q52.1406,181.625 52.7031,182.5156 Q53.2656,183.3906 54.375,183.3906 Q54.8906,183.3906 55.375,183.1719 Q55.875,182.9375 56.3906,182.4688 L56.3906,184.7031 Z "/><text fill="#0D47A1" font-family="Helvetica" font-size="14" lengthAdjust="spacingAndGlyphs" textLength="72" x="70" y="184.8467">Reisepass</text><line style="stroke: #1976D2; stroke-width: 1.5;" x1="27.5" x2="157.5" y1="195" y2="195"/><rect fill="none" height="6" style="stroke: #C82930; stroke-width: 1.0;" width="6" x="34.5" y="205.6484"/><text fill="#0D47A1" font-family="Helvetica" font-size="14" lengthAdjust="spacingAndGlyphs" textLength="107" x="45.5" y="211.9951">nummer: String</text><rect fill="none" height="6" style="stroke: #C82930; stroke-width: 1.0;" width="6" x="34.5" y="221.9453"/><text fill="#0D47A1" font-family="Helvetica" font-size="14" lengthAdjust="spacingAndGlyphs" textLength="107" x="45.5" y="228.292">person: Person</text><line style="stroke: #1976D2; stroke-width: 1.5;" x1="27.5" x2="157.5" y1="235.5938" y2="235.5938"/><!--link Person to Reisepass--><path d="M92.5,87.21 C92.5,110.89 92.5,141.06 92.5,164.74 " fill="none" id="Person-Reisepass" style="stroke: #1976D2; stroke-width: 1.0;"/><text fill="#0D47A1" font-family="Helvetica" font-size="14" lengthAdjust="spacingAndGlyphs" textLength="47" x="93.5" y="130.9951">besitzt</text><text fill="#0D47A1" font-family="Helvetica" font-size="14" lengthAdjust="spacingAndGlyphs" textLength="9" x="82.8109" y="107.5645">1</text><text fill="#0D47A1" font-family="Helvetica" font-size="14" lengthAdjust="spacingAndGlyphs" textLength="26" x="64.2656" y="153.5868">0..1</text><!--
@startuml
skinparam backgroundColor #FFFFFF
skinparam defaultFontName Helvetica
skinparam defaultFontSize 14
skinparam shadowing false
skinparam roundCorner 12
skinparam ArrowColor #1976D2
skinparam ArrowFontColor #0D47A1

skinparam actor {
  BackgroundColor #E3F2FD
  BorderColor #1976D2
  FontColor #0D47A1
}
skinparam usecase {
  BackgroundColor #E3F2FD
  BorderColor #1976D2
  FontColor #0D47A1
}
skinparam class {
  BackgroundColor #E3F2FD
  BorderColor #1976D2
  FontColor #0D47A1
  AttributeFontColor #0D47A1
  HeaderBackgroundColor #BBDEFB
}
skinparam state {
  BackgroundColor #E3F2FD
  BorderColor #1976D2
  FontColor #0D47A1
  ArrowColor #1976D2
  StartColor #222222
  EndColor #222222
}
skinparam sequence {
  ParticipantBackgroundColor #E3F2FD
  ParticipantBorderColor #1976D2
  ParticipantFontColor #0D47A1
  ActorBackgroundColor #E3F2FD
  ActorBorderColor #1976D2
  LifeLineBorderColor #90A4AE
  LifeLineBackgroundColor #ECEFF1
  BoxBorderColor #1976D2
}
skinparam activity {
  BackgroundColor #E3F2FD
  BorderColor #1976D2
  FontColor #0D47A1
  DiamondBackgroundColor #FFF3E0
  DiamondBorderColor #FB8C00
  StartColor #222222
  EndColor #222222
  BarColor #455A64
}
class Person {
  -name: String
  -reisepass: Reisepass
}
class Reisepass {
  -nummer: String
  -person: Person
}
Person "1" - - "0..1" Reisepass : besitzt
@enduml

PlantUML version 1.2019.06(Fri May 24 19:10:25 CEST 2019)
(GPL source distribution)
Java Runtime: OpenJDK Runtime Environment
JVM: OpenJDK 64-Bit Server VM
Java Version: 11.0.31+11-post-1ubuntu1-22.04.2-Ubuntu
Operating System: Linux
OS Version: 6.8.0-136-generic
Default Encoding: UTF-8
Language: en
Country: null
--></g></svg>