<?xml version="1.0" encoding="UTF-8" standalone="no"?><svg xmlns="http://www.w3.org/2000/svg" xmlns:xlink="http://www.w3.org/1999/xlink" contentScriptType="application/ecmascript" contentStyleType="text/css" height="113px" preserveAspectRatio="none" style="width:189px;height:113px;" version="1.1" viewBox="0 0 189 113" width="189px" zoomAndPan="magnify"><defs/><g><!--class Konto--><rect fill="#E3F2FD" height="94.8906" id="Konto" rx="6" ry="6" style="stroke: #1976D2; stroke-width: 1.5;" width="172" x="6" y="8"/><ellipse cx="67.5" cy="23" fill="#ADD1B2" rx="10" ry="10" style="stroke: #1976D2; stroke-width: 1.0;"/><path d="M69.8906,27.7031 Q69.4063,27.9531 68.875,28.0781 Q68.3594,28.2031 67.7813,28.2031 Q65.7188,28.2031 64.625,26.8438 Q63.5469,25.4844 63.5469,22.9063 Q63.5469,20.3281 64.625,18.9688 Q65.7188,17.6094 67.7813,17.6094 Q68.3594,17.6094 68.8906,17.7344 Q69.4219,17.8594 69.8906,18.0938 L69.8906,20.3438 Q69.375,19.8594 68.875,19.6406 Q68.3906,19.4219 67.875,19.4219 Q66.7656,19.4219 66.2031,20.2969 Q65.6406,21.1719 65.6406,22.9063 Q65.6406,24.625 66.2031,25.5156 Q66.7656,26.3906 67.875,26.3906 Q68.3906,26.3906 68.875,26.1719 Q69.375,25.9375 69.8906,25.4688 L69.8906,27.7031 Z "/><text fill="#0D47A1" font-family="Helvetica" font-size="14" lengthAdjust="spacingAndGlyphs" textLength="41" x="86.5" y="27.8467">Konto</text><line style="stroke: #1976D2; stroke-width: 1.5;" x1="7" x2="177" y1="38" y2="38"/><rect fill="none" height="6" style="stroke: #C82930; stroke-width: 1.0;" width="6" x="14" y="48.6484"/><text fill="#0D47A1" font-family="Helvetica" font-size="14" lengthAdjust="spacingAndGlyphs" textLength="147" x="25" y="54.9951">kontonummer: String</text><rect fill="none" height="6" style="stroke: #C82930; stroke-width: 1.0;" width="6" x="14" y="64.9453"/><text fill="#0D47A1" font-family="Helvetica" font-size="14" lengthAdjust="spacingAndGlyphs" textLength="101" x="25" y="71.292">inhaber: String</text><rect fill="none" height="6" style="stroke: #C82930; stroke-width: 1.0;" width="6" x="14" y="81.2422"/><text fill="#0D47A1" font-family="Helvetica" font-size="14" lengthAdjust="spacingAndGlyphs" textLength="136" x="25" y="87.5889">kontostand: double</text><line style="stroke: #1976D2; stroke-width: 1.5;" x1="7" x2="177" y1="94.8906" y2="94.8906"/><!--
@startuml
skinparam backgroundColor #FFFFFF
skinparam defaultFontName Helvetica
skinparam defaultFontSize 14
skinparam shadowing false
skinparam roundCorner 12
skinparam ArrowColor #1976D2
skinparam ArrowFontColor #0D47A1

skinparam actor {
  BackgroundColor #E3F2FD
  BorderColor #1976D2
  FontColor #0D47A1
}
skinparam usecase {
  BackgroundColor #E3F2FD
  BorderColor #1976D2
  FontColor #0D47A1
}
skinparam class {
  BackgroundColor #E3F2FD
  BorderColor #1976D2
  FontColor #0D47A1
  AttributeFontColor #0D47A1
  HeaderBackgroundColor #BBDEFB
}
skinparam state {
  BackgroundColor #E3F2FD
  BorderColor #1976D2
  FontColor #0D47A1
  ArrowColor #1976D2
  StartColor #222222
  EndColor #222222
}
skinparam sequence {
  ParticipantBackgroundColor #E3F2FD
  ParticipantBorderColor #1976D2
  ParticipantFontColor #0D47A1
  ActorBackgroundColor #E3F2FD
  ActorBorderColor #1976D2
  LifeLineBorderColor #90A4AE
  LifeLineBackgroundColor #ECEFF1
  BoxBorderColor #1976D2
}
skinparam activity {
  BackgroundColor #E3F2FD
  BorderColor #1976D2
  FontColor #0D47A1
  DiamondBackgroundColor #FFF3E0
  DiamondBorderColor #FB8C00
  StartColor #222222
  EndColor #222222
  BarColor #455A64
}
class Konto {
  -kontonummer: String
  -inhaber: String
  -kontostand: double
}
@enduml

PlantUML version 1.2019.06(Fri May 24 19:10:25 CEST 2019)
(GPL source distribution)
Java Runtime: OpenJDK Runtime Environment
JVM: OpenJDK 64-Bit Server VM
Java Version: 11.0.31+11-post-1ubuntu1-22.04.2-Ubuntu
Operating System: Linux
OS Version: 6.8.0-136-generic
Default Encoding: UTF-8
Language: en
Country: null
--></g></svg>