<?xml version="1.0" encoding="UTF-8" standalone="no"?><svg xmlns="http://www.w3.org/2000/svg" xmlns:xlink="http://www.w3.org/1999/xlink" contentScriptType="application/ecmascript" contentStyleType="text/css" height="315px" preserveAspectRatio="none" style="width:261px;height:315px;" version="1.1" viewBox="0 0 261 315" width="261px" zoomAndPan="magnify"><defs/><g><ellipse cx="150.5" cy="20" fill="#000000" rx="10" ry="10" style="stroke: none; stroke-width: 1.0;"/><rect fill="#E3F2FD" height="36.2969" rx="12.5" ry="12.5" style="stroke: #1976D2; stroke-width: 1.5;" width="147" x="77" y="50"/><text fill="#0D47A1" font-family="Helvetica" font-size="14" lengthAdjust="spacingAndGlyphs" textLength="127" x="87" y="72.9951">Ampelfarbe prüfen</text><polygon fill="#FFF9C4" points="107.5,106.2969,193.5,106.2969,205.5,118.2969,193.5,130.2969,107.5,130.2969,95.5,118.2969,107.5,106.2969" style="stroke: #FBC02D; stroke-width: 1.5;"/><text fill="#000000" font-family="Helvetica" font-size="14" lengthAdjust="spacingAndGlyphs" textLength="86" x="107.5" y="123.1436">Ampel grün?</text><text fill="#0D47A1" font-family="Helvetica" font-size="14" lengthAdjust="spacingAndGlyphs" textLength="21" x="74.5" y="114.9951">[ja]</text><text fill="#0D47A1" font-family="Helvetica" font-size="14" lengthAdjust="spacingAndGlyphs" textLength="40" x="205.5" y="114.9951">[nein]</text><rect fill="#E3F2FD" height="36.2969" rx="12.5" ry="12.5" style="stroke: #1976D2; stroke-width: 1.5;" width="151" x="10" y="140.2969"/><text fill="#0D47A1" font-family="Helvetica" font-size="14" lengthAdjust="spacingAndGlyphs" textLength="131" x="20" y="163.292">Straße überqueren</text><rect fill="#E3F2FD" height="36.2969" rx="12.5" ry="12.5" style="stroke: #1976D2; stroke-width: 1.5;" width="69" x="181" y="140.2969"/><text fill="#0D47A1" font-family="Helvetica" font-size="14" lengthAdjust="spacingAndGlyphs" textLength="49" x="191" y="163.292">Warten</text><polygon fill="#FFF9C4" points="150.5,182.5938,162.5,194.5938,150.5,206.5938,138.5,194.5938,150.5,182.5938" style="stroke: #FBC02D; stroke-width: 1.5;"/><rect fill="#E3F2FD" height="36.2969" rx="12.5" ry="12.5" style="stroke: #1976D2; stroke-width: 1.5;" width="148" x="76.5" y="226.5938"/><text fill="#0D47A1" font-family="Helvetica" font-size="14" lengthAdjust="spacingAndGlyphs" textLength="128" x="86.5" y="249.5889">Gehweg verlassen</text><ellipse cx="150.5" cy="293.8906" fill="#FFFFFF" rx="11" ry="11" style="stroke: #000000; stroke-width: 1.0;"/><ellipse cx="150.5" cy="293.8906" fill="#000000" rx="6" ry="6" style="stroke: #7F7F7F; stroke-width: 1.0;"/><line style="stroke: #1976D2; stroke-width: 1.5;" x1="150.5" x2="150.5" y1="30" y2="50"/><polygon fill="#1976D2" points="146.5,40,150.5,50,154.5,40,150.5,44" style="stroke: #1976D2; stroke-width: 1.0;"/><line style="stroke: #1976D2; stroke-width: 1.5;" x1="95.5" x2="85.5" y1="118.2969" y2="118.2969"/><line style="stroke: #1976D2; stroke-width: 1.5;" x1="85.5" x2="85.5" y1="118.2969" y2="140.2969"/><polygon fill="#1976D2" points="81.5,130.2969,85.5,140.2969,89.5,130.2969,85.5,134.2969" style="stroke: #1976D2; stroke-width: 1.0;"/><line style="stroke: #1976D2; stroke-width: 1.5;" x1="205.5" x2="215.5" y1="118.2969" y2="118.2969"/><line style="stroke: #1976D2; stroke-width: 1.5;" x1="215.5" x2="215.5" y1="118.2969" y2="140.2969"/><polygon fill="#1976D2" points="211.5,130.2969,215.5,140.2969,219.5,130.2969,215.5,134.2969" style="stroke: #1976D2; stroke-width: 1.0;"/><line style="stroke: #1976D2; stroke-width: 1.5;" x1="85.5" x2="85.5" y1="176.5938" y2="194.5938"/><line style="stroke: #1976D2; stroke-width: 1.5;" x1="85.5" x2="138.5" y1="194.5938" y2="194.5938"/><polygon fill="#1976D2" points="128.5,190.5938,138.5,194.5938,128.5,198.5938,132.5,194.5938" style="stroke: #1976D2; stroke-width: 1.0;"/><line style="stroke: #1976D2; stroke-width: 1.5;" x1="215.5" x2="215.5" y1="176.5938" y2="194.5938"/><line style="stroke: #1976D2; stroke-width: 1.5;" x1="215.5" x2="162.5" y1="194.5938" y2="194.5938"/><polygon fill="#1976D2" points="172.5,190.5938,162.5,194.5938,172.5,198.5938,168.5,194.5938" style="stroke: #1976D2; stroke-width: 1.0;"/><line style="stroke: #1976D2; stroke-width: 1.5;" x1="150.5" x2="150.5" y1="86.2969" y2="106.2969"/><polygon fill="#1976D2" points="146.5,96.2969,150.5,106.2969,154.5,96.2969,150.5,100.2969" style="stroke: #1976D2; stroke-width: 1.0;"/><line style="stroke: #1976D2; stroke-width: 1.5;" x1="150.5" x2="150.5" y1="206.5938" y2="226.5938"/><polygon fill="#1976D2" points="146.5,216.5938,150.5,226.5938,154.5,216.5938,150.5,220.5938" style="stroke: #1976D2; stroke-width: 1.0;"/><line style="stroke: #1976D2; stroke-width: 1.5;" x1="150.5" x2="150.5" y1="262.8906" y2="282.8906"/><polygon fill="#1976D2" points="146.5,272.8906,150.5,282.8906,154.5,272.8906,150.5,276.8906" style="stroke: #1976D2; stroke-width: 1.0;"/><!--
@startuml
skinparam backgroundColor #FFFFFF
skinparam defaultFontName Helvetica
skinparam defaultFontSize 14
skinparam shadowing false
skinparam roundCorner 12
skinparam ArrowColor #1976D2
skinparam ArrowFontColor #0D47A1

skinparam actor {
  BackgroundColor #E3F2FD
  BorderColor #1976D2
  FontColor #0D47A1
}
skinparam usecase {
  BackgroundColor #E3F2FD
  BorderColor #1976D2
  FontColor #0D47A1
}
skinparam class {
  BackgroundColor #E3F2FD
  BorderColor #1976D2
  FontColor #0D47A1
  AttributeFontColor #0D47A1
  HeaderBackgroundColor #BBDEFB
}
skinparam state {
  BackgroundColor #E3F2FD
  BorderColor #1976D2
  FontColor #0D47A1
  ArrowColor #1976D2
  StartColor #222222
  EndColor #222222
}
skinparam sequence {
  ParticipantBackgroundColor #E3F2FD
  ParticipantBorderColor #1976D2
  ParticipantFontColor #0D47A1
  ActorBackgroundColor #E3F2FD
  ActorBorderColor #1976D2
  LifeLineBorderColor #90A4AE
  LifeLineBackgroundColor #ECEFF1
  BoxBorderColor #1976D2
}
skinparam activity {
  BackgroundColor #E3F2FD
  BorderColor #1976D2
  FontColor #0D47A1
  DiamondBackgroundColor #FFF3E0
  DiamondBorderColor #FB8C00
  StartColor #222222
  EndColor #222222
  BarColor #455A64
}
skinparam ActivityStartColor black
skinparam ActivityEndColor black
skinparam ActivityBackgroundColor #E3F2FD
skinparam ActivityBorderColor #1976D2
skinparam ActivityFontColor #0D47A1
skinparam ActivityDiamondBackgroundColor #FFF9C4
skinparam ActivityDiamondBorderColor #FBC02D
!pragma useVerticalIf on

start
:Ampelfarbe prüfen;
if (Ampel grün?) then ([ja])
  :Straße überqueren;
else ([nein])
  :Warten;
endif
:Gehweg verlassen;
stop
@enduml

PlantUML version 1.2019.06(Fri May 24 19:10:25 CEST 2019)
(GPL source distribution)
Java Runtime: OpenJDK Runtime Environment
JVM: OpenJDK 64-Bit Server VM
Java Version: 11.0.31+11-post-1ubuntu1-22.04.2-Ubuntu
Operating System: Linux
OS Version: 6.8.0-136-generic
Default Encoding: UTF-8
Language: en
Country: null
--></g></svg>